<svg xmlns="http://www.w3.org/2000/svg" xmlns:xlink="http://www.w3.org/1999/xlink" viewBox="0,0,256,256" width="96px" height="96px"><g fill="#ffffff" fill-rule="nonzero" stroke="none" stroke-width="1" stroke-linecap="butt" stroke-linejoin="miter" stroke-miterlimit="10" stroke-dasharray="" stroke-dashoffset="0" font-family="none" font-weight="none" font-size="none" text-anchor="none" style="mix-blend-mode: normal"><g transform="scale(10.66667,10.66667)"><path d="M14,11.02c-0.52,0 -0.94,0.53 -0.94,1.18c0,0.65 0.42,1.18 0.94,1.18c0.52,0 0.94,-0.53 0.94,-1.18c0,-0.65 -0.42,-1.18 -0.94,-1.18zM10,11.02c-0.52,0 -0.94,0.53 -0.94,1.18c0,0.65 0.42,1.18 0.94,1.18c0.52,0 0.94,-0.53 0.94,-1.18c0,-0.65 -0.42,-1.18 -0.94,-1.18zM14,11.02c-0.52,0 -0.94,0.53 -0.94,1.18c0,0.65 0.42,1.18 0.94,1.18c0.52,0 0.94,-0.53 0.94,-1.18c0,-0.65 -0.42,-1.18 -0.94,-1.18zM10,11.02c-0.52,0 -0.94,0.53 -0.94,1.18c0,0.65 0.42,1.18 0.94,1.18c0.52,0 0.94,-0.53 0.94,-1.18c0,-0.65 -0.42,-1.18 -0.94,-1.18zM18,3h-12c-1.66,0 -3,1.34 -3,3v12c0,1.66 1.34,3 3,3h11l-0.38,-1.41l3.01,3.03c0.51,0.51 1.37,0.15 1.37,-0.56v-16.06c0,-1.66 -1.34,-3 -3,-3zM17.57,14.74c-1.37,1.25 -3.16,1.26 -3.16,1.26l-0.43,-0.58c0.44,-0.15 0.82,-0.35 1.21,-0.65l-0.09,-0.24c-0.72,0.33 -1.65,0.53 -3.1,0.53c-1.45,0 -2.38,-0.2 -3.1,-0.53l-0.09,0.24c0.39,0.3 0.77,0.5 1.21,0.65l-0.43,0.58c0,0 -1.79,-0.01 -3.16,-1.26c-0.22,-0.2 -0.31,-0.51 -0.29,-0.8c0.25,-2.89 1.14,-4.64 1.46,-5.18c0.07,-0.13 0.17,-0.23 0.29,-0.32c0.38,-0.25 1.33,-0.81 2.5,-0.93l0.3,0.61c0.43,-0.08 0.9,-0.14 1.31,-0.14c0.4,0 0.86,0.06 1.31,0.14l0.3,-0.61c1.12,0.09 2.11,0.67 2.5,0.93c0.12,0.09 0.22,0.19 0.29,0.32c0.32,0.55 1.21,2.29 1.46,5.18c0.02,0.29 -0.07,0.6 -0.29,0.8zM14,11.02c-0.52,0 -0.94,0.53 -0.94,1.18c0,0.65 0.42,1.18 0.94,1.18c0.52,0 0.94,-0.53 0.94,-1.18c0,-0.65 -0.42,-1.18 -0.94,-1.18zM10,11.02c-0.52,0 -0.94,0.53 -0.94,1.18c0,0.65 0.42,1.18 0.94,1.18c0.52,0 0.94,-0.53 0.94,-1.18c0,-0.65 -0.42,-1.18 -0.94,-1.18z"></path></g></g></svg>