<?xml version="1.0" encoding="utf-8"?>
<!-- Generator: Adobe Illustrator 27.8.1, SVG Export Plug-In . SVG Version: 6.00 Build 0)  -->
<svg version="1.1" id="Layer_1" xmlns="http://www.w3.org/2000/svg" xmlns:xlink="http://www.w3.org/1999/xlink" x="0px" y="0px"
	 viewBox="0 0 96 96" style="enable-background:new 0 0 96 96;" xml:space="preserve">
<style type="text/css">
	.st0{fill:#FFFFFF;}
</style>
<path class="st0" d="M71.6,12h-48c-6.6,0-12,5.4-12,12v48c0,6.6,5.4,12,12,12h48c6.6,0,12-5.4,12-12V24C83.6,17.4,78.2,12,71.6,12z
	 M36,30c7,8.7,1.7,17.5,1.7,17.5H25.5L36,30z M74.5,54.5L69.4,57c-1.2,0.6-2.2,1.7-2.6,3c-1.7,5-6.4,10.2-11.7,10.2h-16
	c-8,0-14.9-7.3-16.6-15L22,52.8h14c0,2.9,2.3,5.2,5.2,5.2h5.2v-7h-5.2c8.7-12.2-1.7-24.5-1.7-24.5s3.1,1,7,2.2v-3.9
	c0-1,0.8-1.7,1.7-1.7c1,0,1.7,0.8,1.7,1.7v5C69.2,41.2,55.2,51,55.2,51H50v7h5.7c0.9,0,1.7-0.3,2.4-0.7l4.1-2.8L74.5,51V54.5z"/>
</svg>
